<svg xmlns="http://www.w3.org/2000/svg" width="24" height="24" viewBox="0 0 24 24" fill="none">
    <path d="M3.5 11V5.25C3.5 4.2835 4.2835 3.5 5.25 3.5C6.2165 3.5 7 4.2835 7 5.25V11" stroke="currentColor" stroke-width="2" stroke-linecap="round" />
    <path d="M7 12.5V9.75C7 8.7835 7.7835 8 8.75 8C9.7165 8 10.5 8.7835 10.5 9.75V12.5" stroke="currentColor" stroke-width="2" stroke-linecap="round" />
    <path d="M10.5 12.5V9.75C10.5 8.7835 11.2835 8 12.25 8C13.2165 8 14 8.7835 14 9.75V12.5" stroke="currentColor" stroke-width="2" stroke-linecap="round" />
    <path d="M17.5 15V3.75C17.5 2.7835 16.7165 2 15.75 2C14.7835 2 14 2.7835 14 3.75V10" stroke="currentColor" stroke-width="2" stroke-linecap="round" />
    <path d="M3.5 8V18C3.5 20.2091 5.29086 22 7.5 22H16.5C18.7091 22 20.5 20.2091 20.5 18V12.5C20.5 11.1193 19.3807 10 18 10" stroke="currentColor" stroke-width="2" stroke-linecap="round" stroke-linejoin="round" />
</svg>