<svg xmlns="http://www.w3.org/2000/svg" width="24" height="24" viewBox="0 0 24 24" fill="none">
    <path opacity="0.4" d="M12 8C16.4183 8 20 6.65685 20 5V14.0351C19.4117 13.6948 18.7286 13.5 18 13.5C15.7909 13.5 14 15.2909 14 17.5C14 19.3433 15.2469 20.8954 16.9432 21.3589C15.5825 21.7605 13.8659 22 12 22C7.58172 22 4 20.6569 4 19L4 5C4 6.65685 7.58172 8 12 8Z" fill="currentColor" />
    <ellipse cx="12" cy="5" rx="8" ry="3" stroke="currentColor" stroke-width="2" stroke-linecap="round" stroke-linejoin="round" />
    <path d="M4 12C4 13.3979 6.54955 14.5725 10 14.9055" stroke="currentColor" stroke-width="2" stroke-linecap="round" stroke-linejoin="round" />
    <path d="M14.5 16C15 15 16 13.5 18 13.5C20.2091 13.5 22 15.2909 22 17.5C22 19.7091 20.2091 21.5 18 21.5C16.8053 21.5 15.7329 20.9762 15 20.1458M17 16.5H14V13" stroke="currentColor" stroke-width="2" stroke-linecap="round" stroke-linejoin="round" />
    <path d="M12 22C7.58172 22 4 20.6569 4 19L4 5M20 5V10" stroke="currentColor" stroke-width="2" stroke-linecap="round" stroke-linejoin="round" />
</svg>