<svg xmlns="http://www.w3.org/2000/svg" width="24" height="24" viewBox="0 0 24 24" fill="none">
    <path d="M17 18H7C5.89543 18 5 18.8954 5 20V22H19V20C19 18.8954 18.1046 18 17 18Z" stroke="currentColor" stroke-width="2" stroke-linecap="square" />
    <path d="M8 8H16L18 4.5V4H6V4.5L8 8Z" stroke="currentColor" stroke-width="2" stroke-linecap="square" />
    <path d="M6.75 2V1.25H5.25V2H6H6.75ZM6 2H5.25V4H6H6.75V2H6Z" fill="currentColor" />
    <path d="M10 2V4" stroke="currentColor" stroke-width="2" stroke-linecap="square" />
    <path d="M14 2V4" stroke="currentColor" stroke-width="2" stroke-linecap="square" />
    <path d="M18.75 2V1.25H17.25V2H18H18.75ZM18 2H17.25V4H18H18.75V2H18Z" fill="currentColor" />
    <path d="M17 18H7L8 8H16L17 18Z" stroke="currentColor" stroke-width="2" stroke-linecap="square" />
</svg>