<svg xmlns="http://www.w3.org/2000/svg" width="24" height="24" viewBox="0 0 24 24" fill="none">
    <path d="M4.29289 2.29289C4.68342 1.90237 5.31643 1.90237 5.70696 2.29289C6.09748 2.68342 6.09748 3.31643 5.70696 3.70696L2.70696 6.70696C2.31643 7.09748 1.68342 7.09748 1.29289 6.70696C0.902369 6.31643 0.902369 5.68342 1.29289 5.29289L4.29289 2.29289Z" fill="currentColor" />
    <path d="M18.2929 2.29289C18.6834 1.90237 19.3164 1.90237 19.707 2.29289L22.707 5.29289C23.0975 5.68342 23.0975 6.31643 22.707 6.70696C22.3164 7.09748 21.6834 7.09748 21.2929 6.70696L18.2929 3.70696C17.9024 3.31643 17.9024 2.68342 18.2929 2.29289Z" fill="currentColor" />
    <path fill-rule="evenodd" clip-rule="evenodd" d="M19.1991 18.3086C20.4818 16.7208 21.2499 14.7001 21.2499 12.5C21.2499 7.39137 17.1085 3.25 11.9999 3.25C6.89125 3.25 2.74988 7.39137 2.74988 12.5C2.74988 14.7124 3.52661 16.7434 4.82225 18.3352L2.80457 20.2842C2.4077 20.668 2.39743 21.3012 2.78113 21.6982C3.16495 22.0951 3.79814 22.1063 4.1952 21.7227L6.24427 19.7417C7.8239 20.9988 9.82417 21.75 11.9999 21.75C14.1879 21.75 16.1986 20.9903 17.7824 19.7202L19.7971 21.71C20.1901 22.0979 20.8232 22.0932 21.2112 21.7002C21.5992 21.3072 21.5954 20.6741 21.2024 20.2861L19.1991 18.3086ZM11 16V13.4951H8.50488C7.95264 13.4951 7.50495 13.0473 7.50488 12.4951C7.50488 11.9428 7.9526 11.4951 8.50488 11.4951H11V9C11 8.44772 11.4477 8 12 8C12.5522 8.00006 13 8.44775 13 9V11.4951H15.5049C16.0572 11.4951 16.5049 11.9428 16.5049 12.4951C16.5048 13.0473 16.0571 13.4951 15.5049 13.4951H13V16C13 16.5522 12.5522 16.9999 12 17C11.4477 17 11 16.5523 11 16Z" fill="currentColor" />
</svg>